<svg id="Camada_1" data-name="Camada 1" xmlns="http://www.w3.org/2000/svg" viewBox="0 0 200 200"><defs><style>.cls-1{fill:#d90429;}</style></defs><path class="cls-1" d="M200,98A100.05,100.05,0,0,0,77.16,2.63h0A100.23,100.23,0,0,0,5.63,66.83c-.08.22-.16.45-.23.67A99.85,99.85,0,0,0,0,100c0,.65,0,1.31,0,2a100.05,100.05,0,0,0,122.82,95.41h0a100.13,100.13,0,0,0,71.5-64.2c.09-.21.16-.44.23-.66A99.65,99.65,0,0,0,200,100C200,99.35,200,98.69,200,98Zm-90.26,85.22a82.23,82.23,0,0,1-9.72.57,84,84,0,0,1-78.31-53.92h0A83.15,83.15,0,0,1,16.77,110a15.27,15.27,0,0,1,13.45-8H65.36A15.24,15.24,0,0,0,80.61,86.72v-2A17.22,17.22,0,0,1,97.84,67.5h6.3a15.26,15.26,0,0,0,15.25-15.25v-4A15.24,15.24,0,0,0,104.14,33H75A15.26,15.26,0,0,1,61.8,25.39a83.16,83.16,0,0,1,28.48-8.65,82.23,82.23,0,0,1,9.72-.57A83.8,83.8,0,0,1,183.23,90h0a15.29,15.29,0,0,1-13.45,8H134.63a15.24,15.24,0,0,0-15.24,15.25v2a17.24,17.24,0,0,1-17.24,17.24H95.86a15.25,15.25,0,0,0-15.25,15.25v4A15.25,15.25,0,0,0,95.86,167H125a15.27,15.27,0,0,1,13.23,7.63A83.16,83.16,0,0,1,109.72,183.26Z"/></svg>