<svg id="Camada_1" data-name="Camada 1" xmlns="http://www.w3.org/2000/svg" viewBox="0 0 200 200"><defs><style>.cls-1{fill:#000814;}.cls-2{fill:#d90429;}</style></defs><rect class="cls-1" width="200" height="200" rx="30.14"/><path class="cls-2" d="M161.84,98.79a61.87,61.87,0,0,0-76-59s0,0,0,0a61,61,0,0,0-7.59,2.29A62.07,62.07,0,0,0,41.62,79.48c0,.14-.09.28-.14.41A62,62,0,0,0,38.14,100c0,.41,0,.81,0,1.21a61.87,61.87,0,0,0,76,59s0,0,0,0a61,61,0,0,0,7.59-2.29,62.08,62.08,0,0,0,36.64-37.42c0-.13.1-.27.14-.41A61.7,61.7,0,0,0,161.86,100C161.86,99.59,161.85,99.19,161.84,98.79ZM106,151.5a51.85,51.85,0,0,1-54.45-33h0a51.19,51.19,0,0,1-3-12.32,9.43,9.43,0,0,1,8.31-5H78.57A9.43,9.43,0,0,0,88,91.78V90.55A10.66,10.66,0,0,1,98.66,79.89h3.9A9.43,9.43,0,0,0,112,70.46V68a9.43,9.43,0,0,0-9.43-9.43h-18a9.45,9.45,0,0,1-8.19-4.72A51.85,51.85,0,0,1,100,48.15,51.93,51.93,0,0,1,148.44,81.5a50.86,50.86,0,0,1,3,12.32h0a9.44,9.44,0,0,1-8.32,5H121.42a9.43,9.43,0,0,0-9.43,9.43v1.23a10.66,10.66,0,0,1-10.66,10.66H97.44A9.43,9.43,0,0,0,88,129.54V132a9.43,9.43,0,0,0,9.43,9.43h18a9.46,9.46,0,0,1,8.19,4.72A51.39,51.39,0,0,1,106,151.5Z"/></svg>