<svg id="Camada_1" data-name="Camada 1" xmlns="http://www.w3.org/2000/svg" viewBox="0 0 150 150"><defs><style>.cls-1{fill:#000814;}.cls-2{fill:#edf2f4;}</style></defs><path class="cls-1" d="M131.57,150H18.15a8.94,8.94,0,0,0-1-.27A20.35,20.35,0,0,1,0,129.71Q0,75,.07,20.26c0-8.15,4-14.26,11.2-18C13.38,1.17,15.84.74,18.15,0H131.57a6.55,6.55,0,0,0,.83.25c8.5,1.59,14,6.56,16.56,14.8.31,1,.49,2.07.74,3.11V131.81c-.1.37-.22.74-.29,1.11-1.68,8.22-6.47,13.65-14.46,16.21C133.85,149.49,132.7,149.69,131.57,150ZM28.15,103.18c.43,0,.76.08,1.1.08,8.86,0,17.72.08,26.58,0a27.34,27.34,0,0,0,7.92-1.08c6.24-2,11.25-5.48,12.13-12.7A34.86,34.86,0,0,0,76,84.33a11.74,11.74,0,0,0-5.06-9.6c-1.55-1.12-3.28-2-5-3L67.13,71c4.73-2.91,6.5-7.3,6.31-12.66-.18-5-2.72-8.42-7-10.63A18.42,18.42,0,0,0,58,45.67H29.33c-.37,0-.75,0-1.18.06Zm93.69-17.91a77.4,77.4,0,0,0-.83-8.15c-2.5-11.91-14.22-19.38-25.52-16.3C79.55,65.17,74.6,85.15,85,97.22c5.59,6.52,12.92,8.12,21.08,6.56,7.08-1.36,11.93-5.41,14.26-12.33a9.11,9.11,0,0,0,.21-1.18c-2.83,0-5.51,0-8.18,0a2.34,2.34,0,0,0-2.25,1.16,10.56,10.56,0,0,1-14.86,2.49c-2.83-2.11-4-5-3.79-8.62ZM88.92,55.17h23.26V49.56H88.92Z"/><path class="cls-2" d="M28.15,103.18V45.73c.43,0,.81-.06,1.18-.06H58a18.42,18.42,0,0,1,8.43,2.06c4.33,2.21,6.87,5.65,7,10.63.19,5.36-1.58,9.75-6.31,12.66l-1.19.71c1.71,1,3.44,1.88,5,3A11.74,11.74,0,0,1,76,84.33a34.86,34.86,0,0,1-.11,5.11c-.88,7.22-5.89,10.7-12.13,12.7a27.34,27.34,0,0,1-7.92,1.08c-8.86.12-17.72,0-26.58,0C28.91,103.26,28.58,103.22,28.15,103.18Zm12.57-9.72H54.17a13.36,13.36,0,0,0,1.9-.09c3.16-.54,5.93-1.72,7.09-5.06,1.75-5.09-1.28-9.88-6.87-10.34-4.55-.38-9.14-.19-13.71-.25-.57,0-1.14,0-1.75,0,0,.42-.11.65-.11.89Zm.08-24.71c4.69,0,9.26,0,13.82,0a7.89,7.89,0,0,0,1.59-.27,6.21,6.21,0,0,0,5.14-6.22,6.12,6.12,0,0,0-5.19-6.31A16.1,16.1,0,0,0,53,55.63c-4,0-8.06,0-12.18,0Z"/><path class="cls-2" d="M121.84,85.27H91.42c-.17,3.6,1,6.51,3.79,8.62a10.56,10.56,0,0,0,14.86-2.49,2.34,2.34,0,0,1,2.25-1.16c2.67.07,5.35,0,8.18,0a9.11,9.11,0,0,1-.21,1.18c-2.33,6.92-7.18,11-14.26,12.33-8.16,1.56-15.49,0-21.08-6.56-10.35-12.07-5.4-32,10.54-36.4,11.3-3.08,23,4.39,25.52,16.3A77.4,77.4,0,0,1,121.84,85.27Zm-30.3-7.43h18.22c-.38-5.15-4.6-9.14-9.41-8.94A9.35,9.35,0,0,0,91.54,77.84Z"/><path class="cls-2" d="M88.92,55.17V49.56h23.26v5.61Z"/><path class="cls-1" d="M40.72,93.46V78.61c0-.24.06-.47.11-.89.61,0,1.18,0,1.75,0,4.57.06,9.16-.13,13.71.25,5.59.46,8.62,5.25,6.87,10.34-1.16,3.34-3.93,4.52-7.09,5.06a13.36,13.36,0,0,1-1.9.09Z"/><path class="cls-1" d="M40.8,68.75V55.62c4.12,0,8.15,0,12.18,0a16.1,16.1,0,0,1,3.18.31,6.12,6.12,0,0,1,5.19,6.31,6.21,6.21,0,0,1-5.14,6.22,7.89,7.89,0,0,1-1.59.27C50.06,68.76,45.49,68.75,40.8,68.75Z"/><path class="cls-1" d="M91.54,77.84a9.35,9.35,0,0,1,8.81-8.94c4.81-.2,9,3.79,9.41,8.94Z"/></svg>