<svg id="Camada_1" data-name="Camada 1" xmlns="http://www.w3.org/2000/svg" viewBox="0 0 150 150"><defs><style>.cls-1{fill:#000814;}.cls-2{fill:#edf2f4;}</style></defs><path class="cls-1" d="M150,18.16V131.82a8.21,8.21,0,0,0-.27,1A20.36,20.36,0,0,1,129.58,150Q75,150,20.35,150A20.31,20.31,0,0,1,0,129.64Q0,75,.07,20.27c0-8.15,4-14.26,11.22-18C13.41,1.17,15.87.74,18.18,0H131.84a6.09,6.09,0,0,0,.83.25c8.51,1.59,14,6.56,16.59,14.8C149.58,16.07,149.76,17.12,150,18.16ZM65.8,96.43c-1.06-.19-2.4-.38-3.73-.66-7.83-1.61-13.69-5.55-15.9-13.67a32.17,32.17,0,0,1-.92-5.17c-.58-5.5.38-10.59,4.1-14.93a1.82,1.82,0,0,0,.27-1.42,17.55,17.55,0,0,1,.2-9.95,1.81,1.81,0,0,1,2.3-1.54A23.23,23.23,0,0,1,61.8,53a3.68,3.68,0,0,0,3.11.54A38.76,38.76,0,0,1,82.18,53a10.6,10.6,0,0,0,8.44-1.33c2.21-1.36,5-1.81,7.52-2.57.94-.28,1.49.2,1.79,1.19a16.45,16.45,0,0,1,.54,9.08,3.72,3.72,0,0,0,.81,3.65c3.38,4.31,3.79,9.34,3.31,14.59-.83,9.17-5.74,15.17-14.62,17.59-2,.55-4.15.89-6.37,1.35,2.68,2.86,3,6.36,2.93,10s-.06,7,0,10.54c0,2.21,1.33,3.21,3.46,2.6a30.07,30.07,0,0,0,2.88-1.05,45.6,45.6,0,0,0,24.66-61.94c-10.2-21.74-36.62-32.42-59-23.56C40.36,40.3,29.83,53.71,28.34,73.21c-1.23,16.13,5.29,29.26,18,39.29a43.42,43.42,0,0,0,13.36,7.11c1.92.64,3.54-.07,3.61-1.7.12-2.67,0-5.35,0-8-1.38.14-2.59.3-3.8.37-5.76.35-10.43-2.21-12.34-7.37a12.49,12.49,0,0,0-5-6.17,7.87,7.87,0,0,1-1.56-2l2.75-.53c.09,0,.19,0,.28.07,2.93.63,4.83,2.56,6.41,5a9.63,9.63,0,0,0,12.53,3.75,2,2,0,0,0,.93-.94C64.32,100.18,65,98.34,65.8,96.43Z"/><path class="cls-2" d="M65.8,96.43c-.77,1.91-1.48,3.75-2.27,5.55a2,2,0,0,1-.93.94,9.63,9.63,0,0,1-12.53-3.75c-1.58-2.4-3.48-4.33-6.41-5-.09,0-.19-.09-.28-.07l-2.75.53a7.87,7.87,0,0,0,1.56,2,12.49,12.49,0,0,1,5,6.17c1.91,5.16,6.58,7.72,12.34,7.37,1.21-.07,2.42-.23,3.8-.37,0,2.69.08,5.37,0,8-.07,1.63-1.69,2.34-3.61,1.7A43.42,43.42,0,0,1,46.3,112.5c-12.67-10-19.19-23.16-18-39.29,1.49-19.5,12-32.91,30.11-40.08,22.41-8.86,48.83,1.82,59,23.56a45.6,45.6,0,0,1-24.66,61.94,30.07,30.07,0,0,1-2.88,1.05c-2.13.61-3.46-.39-3.46-2.6,0-3.51,0-7,0-10.54s-.25-7.12-2.93-10c2.22-.46,4.33-.8,6.37-1.35,8.88-2.42,13.79-8.42,14.62-17.59.48-5.25.07-10.28-3.31-14.59a3.72,3.72,0,0,1-.81-3.65,16.45,16.45,0,0,0-.54-9.08c-.3-1-.85-1.47-1.79-1.19-2.54.76-5.31,1.21-7.52,2.57A10.6,10.6,0,0,1,82.18,53a38.76,38.76,0,0,0-17.27.51A3.68,3.68,0,0,1,61.8,53a23.23,23.23,0,0,0-9.68-3.89,1.81,1.81,0,0,0-2.3,1.54,17.55,17.55,0,0,0-.2,9.95A1.82,1.82,0,0,1,49.35,62c-3.72,4.34-4.68,9.43-4.1,14.93a32.17,32.17,0,0,0,.92,5.17c2.21,8.12,8.07,12.06,15.9,13.67C63.4,96.05,64.74,96.24,65.8,96.43Z"/></svg>