<svg id="Camada_1" data-name="Camada 1" xmlns="http://www.w3.org/2000/svg" viewBox="0 0 150 150"><defs><style>.cls-1{fill:#000814;}.cls-2{fill:#edf2f4;}</style></defs><path class="cls-1" d="M150,20.19A20.26,20.26,0,0,0,129.79,0Q75,0,20.26,0A20.38,20.38,0,0,0,.3,16.92c-.07.42-.2.84-.3,1.25V131.81c.24,1,.42,2.09.73,3.1,2.58,8.24,8.09,13.21,16.61,14.8a6,6,0,0,1,.82.26H131.82c1.18-.29,2.38-.53,3.54-.87A20.27,20.27,0,0,0,150,129.84Q150,75,150,20.19Z"/><path class="cls-2" d="M75.17,32.38c5.6,0,11.2,0,16.8,0a25.37,25.37,0,0,1,25.62,25.67q0,16.89,0,33.78a25.36,25.36,0,0,1-25.71,25.75q-16.89,0-33.77,0A25.39,25.39,0,0,1,32.4,91.82q0-16.8,0-33.61A25.37,25.37,0,0,1,58.2,32.38C63.85,32.37,69.51,32.38,75.17,32.38ZM75,109c5.49,0,11,0,16.47,0C101.9,109,109,101.85,109,91.4q0-16.47,0-32.94C109,48.11,101.85,41,91.53,41Q75.06,41,58.6,41C48.15,41,41,48.07,41,58.49Q41,75,41,91.43C41,101.86,48.12,109,58.55,109,64,109,69.52,109,75,109Z"/><path class="cls-1" d="M75,109c-5.49,0-11,0-16.46,0C48.12,109,41,101.86,41,91.43Q41,75,41,58.49C41,48.07,48.15,41,58.6,41q16.47,0,32.93,0C101.85,41,109,48.11,109,58.46q0,16.47,0,32.94c0,10.45-7.1,17.55-17.52,17.59C86,109,80.5,109,75,109Zm0-56A22,22,0,1,0,97,75.15,21.93,21.93,0,0,0,75,53Zm22.19,5.39A5.43,5.43,0,0,0,102.6,53a5.46,5.46,0,1,0-5.38,5.4Z"/><path class="cls-2" d="M75,53A22,22,0,1,1,53,74.89,21.95,21.95,0,0,1,75,53Zm13.4,21.94a13.43,13.43,0,1,0-13.32,13.5A13.36,13.36,0,0,0,88.43,74.91Z"/><path class="cls-2" d="M97.22,58.36a5.45,5.45,0,0,1-5.53-5.44,5.46,5.46,0,0,1,10.91,0A5.43,5.43,0,0,1,97.22,58.36Z"/><path class="cls-1" d="M88.43,74.91A13.43,13.43,0,1,1,75,61.55,13.37,13.37,0,0,1,88.43,74.91Z"/></svg>