<svg id="Camada_1" data-name="Camada 1" xmlns="http://www.w3.org/2000/svg" viewBox="0 0 150 150"><defs><style>.cls-1{fill:#000814;}.cls-2{fill:#fff;}</style></defs><path class="cls-1" d="M149.26,15.05c-2.57-8.24-8.08-13.21-16.59-14.8a6.09,6.09,0,0,1-.83-.25H18.18c-2.31.74-4.77,1.17-6.89,2.26C4,6,.09,12.12.07,20.27Q-.08,75,0,129.64A20.31,20.31,0,0,0,20.35,150Q75,150,129.58,150a20.36,20.36,0,0,0,20.15-17.18,8.21,8.21,0,0,1,.27-1V18.16C149.76,17.12,149.57,16.07,149.26,15.05Z"/><path class="cls-2" d="M79.65,113H64V62.34H79v6.82c.21-.12.31-.14.35-.2,3.31-5.33,8.26-7.7,14.38-7.88a21.88,21.88,0,0,1,10.12,1.83c4.16,2,6.48,5.39,7.77,9.66A37,37,0,0,1,113,83c.07,9.77,0,19.55,0,29.32,0,.15,0,.3,0,.51H97.25v-1c0-8.29,0-16.58,0-24.87a32.2,32.2,0,0,0-.5-5.63c-1-5.19-4.33-7-9.17-6.38-4.4.52-6.83,3.1-7.51,7.86a37.14,37.14,0,0,0-.37,5.27c0,7.92,0,15.84,0,23.76Z"/><path class="cls-2" d="M38.28,62.32H54V113H38.28Z"/><path class="cls-2" d="M55.22,46.09A9.13,9.13,0,1,1,46,37,9.21,9.21,0,0,1,55.22,46.09Z"/></svg>