<svg width="109" height="15" viewBox="0 0 109 15" fill="none" xmlns="http://www.w3.org/2000/svg">
<g clip-path="url(#clip0_24_6)">
<path d="M96.8804 7.39196C96.8593 6.27386 96.5956 5.17476 96.1086 4.17511C95.6216 3.17546 94.9237 2.30055 94.066 1.61439C93.2082 0.928234 92.2123 0.448201 91.151 0.209418C90.0898 -0.0293652 88.9902 -0.020856 87.9326 0.234323C87.6313 0.307582 87.3351 0.401108 87.0458 0.514298C86.0481 0.899317 85.1446 1.50488 84.399 2.28832C83.6533 3.07176 83.0836 4.01401 82.73 5.04869L82.7122 5.10042C82.4517 5.88409 82.3189 6.70671 82.3191 7.53499C82.3191 7.58368 82.3191 7.63237 82.3191 7.68107C82.3424 8.7984 82.6075 9.89632 83.0951 10.8948C83.5827 11.8933 84.2806 12.7673 85.1378 13.453C85.995 14.1387 86.99 14.6189 88.0503 14.8586C89.1106 15.0983 90.2095 15.0915 91.2669 14.8387C91.5682 14.7654 91.8644 14.6719 92.1537 14.5587C93.1519 14.1738 94.0557 13.5679 94.8015 12.7838C95.5472 11.9998 96.1166 11.0567 96.4695 10.0213L96.4873 9.97261C96.7478 9.18894 96.8806 8.36632 96.8804 7.53804V7.39196ZM90.3033 13.7827C88.9544 13.9455 87.5913 13.6403 86.4299 12.9154C85.2685 12.1905 84.3753 11.0874 83.8917 9.78088C83.7134 9.29979 83.5933 8.79795 83.534 8.28667C83.6287 8.10325 83.7701 7.94976 83.9429 7.84256C84.1158 7.73537 84.3136 7.6785 84.5154 7.67802H87.0753C87.3701 7.67802 87.6528 7.55747 87.8612 7.34288C88.0697 7.12829 88.1868 6.83725 88.1868 6.53377V6.39074C88.1868 6.04853 88.3188 5.72033 88.5539 5.47835C88.7889 5.23637 89.1077 5.10042 89.4401 5.10042H89.9013C90.195 5.09881 90.4762 4.97755 90.6834 4.76313C90.8905 4.54872 91.0068 4.25859 91.0068 3.95617V3.65185C91.0068 3.3489 90.8901 3.05832 90.6823 2.84382C90.4745 2.62932 90.1926 2.50841 89.8983 2.5076H87.7759C87.5805 2.50811 87.3885 2.45547 87.2193 2.355C87.0501 2.25453 86.9096 2.1098 86.8122 1.93548C87.4589 1.59415 88.1597 1.37462 88.8814 1.28727C89.1169 1.25926 89.3538 1.24503 89.5909 1.24467C91.0847 1.24423 92.5268 1.80774 93.6441 2.82847C94.7615 3.8492 95.4764 5.25631 95.6537 6.78332C95.5589 6.96673 95.4176 7.12023 95.2448 7.22742C95.0719 7.33461 94.874 7.39148 94.6723 7.39196H92.1124C91.8211 7.39353 91.5422 7.5127 91.3354 7.72384C91.1287 7.93498 91.0107 8.22122 91.0068 8.52099V8.67011C91.0072 8.83981 90.9751 9.00793 90.9122 9.16483C90.8494 9.32173 90.7572 9.46433 90.6408 9.58447C90.5243 9.70461 90.386 9.79993 90.2338 9.86497C90.0815 9.93 89.9183 9.96348 89.7535 9.96348H89.2953C89.0005 9.96348 88.7178 10.084 88.5094 10.2986C88.3009 10.5132 88.1838 10.8043 88.1838 11.1077V11.412C88.1838 11.7155 88.3009 12.0066 88.5094 12.2212C88.7178 12.4357 89.0005 12.5563 89.2953 12.5563H91.4147C91.6101 12.5558 91.8021 12.6084 91.9713 12.7089C92.1406 12.8094 92.281 12.9541 92.3784 13.1284C91.7303 13.4726 91.0274 13.6942 90.3033 13.7827Z" fill="white"/>
<path d="M17.9046 0.979919L12.5542 13.5788V0.979919H8.37143V6.94462L3.52948 0.979919H0V14.0931H4.18571V8.13147L9.02471 14.0931H16.7103L17.5617 11.8077H22.4007L23.2549 14.0931H27.689L22.1258 0.979919H17.9046ZM18.747 8.62447L19.9797 5.32259L21.2123 8.62447H18.747Z" fill="white"/>
<path d="M39.8678 0.982956H36.1373L33.0187 8.63359L29.9858 0.982956H25.3656L30.7515 14.0931H34.9726L39.8678 2.17894V14.0931H44.1629V0.982956H40.3585H39.8678Z" fill="white"/>
<path d="M57.4797 12.7267V7.18198H53.7492V10.5021L53.6044 10.563C53.1489 10.7299 52.669 10.8153 52.1855 10.8156C51.7587 10.8232 51.3347 10.7436 50.938 10.5813C50.5777 10.4323 50.2523 10.2061 49.9832 9.91783C49.7103 9.61805 49.5001 9.26383 49.3654 8.87705C49.2161 8.44756 49.142 7.99419 49.1467 7.53804C49.1396 7.07276 49.2137 6.60994 49.3654 6.17163C49.5002 5.78761 49.7105 5.43639 49.9832 5.13998C50.2556 4.84944 50.588 4.6258 50.9558 4.48569C51.3663 4.32982 51.8012 4.25347 52.2387 4.26049C52.7798 4.25272 53.3148 4.37791 53.7995 4.62568C54.2967 4.89467 54.7384 5.26055 55.1001 5.70298L57.8462 3.21059C57.192 2.38861 56.3515 1.74484 55.3987 1.33597C54.3293 0.884154 53.1816 0.661524 52.0259 0.681675C51.0374 0.669411 50.0546 0.837349 49.123 1.17772C48.2775 1.48811 47.5006 1.96922 46.8381 2.59281C46.2021 3.20174 45.6984 3.94222 45.36 4.76567C44.9987 5.64198 44.8185 6.58613 44.8309 7.53804C44.8185 8.48995 44.9987 9.4341 45.36 10.3104C45.6997 11.1331 46.2032 11.8734 46.8381 12.4833C47.4842 13.1017 48.2426 13.5826 49.0698 13.8984C49.9837 14.2361 50.9485 14.404 51.9194 14.3944C52.8988 14.3881 53.8726 14.2427 54.8134 13.9623C55.7607 13.7 56.6609 13.2828 57.4797 12.7267Z" fill="white"/>
<path d="M66.8059 0.979919H62.5935L57.0244 14.0931H61.3934L62.2447 11.8077H67.1015L67.9557 14.0931H72.3898L66.8059 0.979919ZM63.433 8.62447L64.6687 5.32259L65.9013 8.62447H63.433Z" fill="white"/>
<path d="M78.5886 14.0931V4.40961H82.3191V0.982956H70.563V4.40961H74.2935V14.0931H78.5886Z" fill="white"/>
<path d="M104.72 14.0931H109.307L106.647 10.0609C107.329 9.71341 107.912 9.189 108.338 8.53925C108.824 7.76208 109.071 6.85216 109.047 5.92817C109.07 4.99768 108.823 4.08133 108.338 3.29579C107.844 2.53528 107.145 1.93899 106.328 1.57942C105.353 1.1555 104.303 0.948103 103.245 0.970779H97.0962V14.0931H101.391V10.7973H102.574L104.72 14.0931ZM104.273 4.80218C104.419 4.9476 104.532 5.12328 104.606 5.31748C104.68 5.51167 104.713 5.71989 104.702 5.92817C104.713 6.13602 104.68 6.34383 104.606 6.53755C104.532 6.73128 104.419 6.90641 104.273 7.05112C103.9 7.35512 103.429 7.50196 102.955 7.46195H101.391V4.39135H102.955C103.429 4.35135 103.9 4.49819 104.273 4.80218Z" fill="white"/>
</g>
<defs>
<clipPath id="clip0_24_6">
<rect width="109" height="15" fill="white"/>
</clipPath>
</defs>
</svg>
