<svg id="Camada_1" data-name="Camada 1" xmlns="http://www.w3.org/2000/svg" viewBox="0 0 150 150"><defs><style>.cls-1{fill:#fff;}</style></defs><path class="cls-1" d="M120.74,66.66A46.47,46.47,0,1,0,33,94.51a4.46,4.46,0,0,1,.28,2.63c-1.43,7.27-3,14.52-4.46,21.77-.48,2.33.48,3.24,2.8,2.69,7.21-1.69,14.41-3.41,21.63-5a3.7,3.7,0,0,1,2.2.25,46.76,46.76,0,0,0,66.27-42C121.37,72.08,121.21,69.34,120.74,66.66Zm-40.58,44a35.89,35.89,0,0,1-22.89-4.25,4.58,4.58,0,0,0-3.6-.42c-4.05,1-8.14,1.94-12.52,3,.72-3.5,1.22-6.79,2.08-10a11.41,11.41,0,0,0-.94-8.58C31.3,67.9,46,41.32,70.81,38.43a36.41,36.41,0,0,1,9.35,72.21Z"/><path class="cls-1" d="M99.53,89.54c-2.78,4.63-6.42,8-10.65,7.73a28.88,28.88,0,0,1-16.09-4.73c-7.3-4.7-13.57-10.49-18.05-18A20.45,20.45,0,0,1,51.59,63c.21-4.69,3.08-7.79,6.59-10.34A3.06,3.06,0,0,1,62.64,54C64,57,65.42,60,66.55,63a5,5,0,0,1-.47,3.14,11.44,11.44,0,0,1-1.72,2.34,3.21,3.21,0,0,0-.1,4.31A47.16,47.16,0,0,0,78.85,85.68,3.18,3.18,0,0,0,83.22,85c3.83-4.08,3.91-3.16,8.3-2,2,.52,4,1.07,5.9,1.69A3.31,3.31,0,0,1,99.53,89.54Z"/></svg>