<svg id="Camada_1" data-name="Camada 1" xmlns="http://www.w3.org/2000/svg" viewBox="0 0 150 150"><defs><style>.cls-1{fill:#000814;}.cls-2{fill:#edf2f4;}</style></defs><path class="cls-1" d="M131.82,150H18.16a6,6,0,0,0-.82-.26c-8.52-1.59-14-6.56-16.61-14.8-.31-1-.49-2.07-.73-3.1V18.17c.1-.41.23-.83.3-1.25A20.38,20.38,0,0,1,20.26,0Q75,0,129.79,0A20.26,20.26,0,0,1,150,20.19q.09,54.83,0,109.65a20.27,20.27,0,0,1-14.61,19.26C134.2,149.44,133,149.68,131.82,150ZM121.67,74.79c-.31-2.71-.46-5.45-.93-8.13A46.47,46.47,0,1,0,33,94.51a4.54,4.54,0,0,1,.28,2.63c-1.44,7.27-3,14.52-4.46,21.77-.48,2.33.47,3.24,2.79,2.69,7.22-1.69,14.42-3.41,21.64-5a3.67,3.67,0,0,1,2.19.25,46.77,46.77,0,0,0,66.28-42Z"/><path class="cls-2" d="M121.67,74.79a46.77,46.77,0,0,1-66.28,42,3.67,3.67,0,0,0-2.19-.25c-7.22,1.64-14.42,3.36-21.64,5-2.32.55-3.27-.36-2.79-2.69,1.49-7.25,3-14.5,4.46-21.77A4.54,4.54,0,0,0,33,94.51a46.47,46.47,0,1,1,87.79-27.85C121.21,69.34,121.36,72.08,121.67,74.79ZM41.15,108.93c4.37-1,8.46-1.92,12.52-3a4.58,4.58,0,0,1,3.6.42,35.88,35.88,0,0,0,22.89,4.25,36.41,36.41,0,0,0-9.35-72.21C46,41.32,31.29,67.9,42.28,90.38A11.36,11.36,0,0,1,43.23,99C42.36,102.14,41.86,105.43,41.15,108.93Z"/><path class="cls-1" d="M41.15,108.93c.71-3.5,1.21-6.79,2.08-10a11.36,11.36,0,0,0-.95-8.58C31.29,67.9,46,41.32,70.81,38.43a36.41,36.41,0,0,1,9.35,72.21,35.88,35.88,0,0,1-22.89-4.25,4.58,4.58,0,0,0-3.6-.42C49.61,107,45.52,107.91,41.15,108.93ZM88.87,97.27c4.24.28,7.87-3.1,10.66-7.73,1.15-1.92.12-4.17-2.12-4.89C95.47,84,93.5,83.48,91.52,83c-4.39-1.15-4.48-2.07-8.3,2a3.19,3.19,0,0,1-4.38.71A47.12,47.12,0,0,1,64.26,72.8a3.21,3.21,0,0,1,.1-4.31,12.23,12.23,0,0,0,1.72-2.34A4.92,4.92,0,0,0,66.54,63c-1.12-3.06-2.5-6-3.9-9a3.06,3.06,0,0,0-4.46-1.41C54.67,55.18,51.8,58.28,51.59,63a20.52,20.52,0,0,0,3.14,11.54c4.49,7.54,10.75,13.33,18.06,18A28.84,28.84,0,0,0,88.87,97.27Z"/><path class="cls-2" d="M88.87,97.27a28.84,28.84,0,0,1-16.08-4.73c-7.31-4.7-13.57-10.49-18.06-18A20.52,20.52,0,0,1,51.59,63c.21-4.69,3.08-7.79,6.59-10.34A3.06,3.06,0,0,1,62.64,54C64,57,65.42,60,66.54,63a4.92,4.92,0,0,1-.46,3.14,12.23,12.23,0,0,1-1.72,2.34,3.21,3.21,0,0,0-.1,4.31A47.12,47.12,0,0,0,78.84,85.68,3.19,3.19,0,0,0,83.22,85c3.82-4.08,3.91-3.16,8.3-2,2,.52,4,1.07,5.89,1.69,2.24.72,3.27,3,2.12,4.89C96.74,94.17,93.11,97.55,88.87,97.27Z"/></svg>